<svg width="448" height="89" viewBox="0 0 448 89" fill="none" xmlns="http://www.w3.org/2000/svg">
<path d="M187.784 27.1734L182.643 23.2032L188.88 25.766L190.08 24.1957L186.05 18.8182L191.176 22.7736L192.583 21.0255L182.525 13.3074L180.954 15.3517L186.347 22.5514L178.021 19.1441L176.436 21.2033L186.435 28.9214L187.784 27.1734Z" fill="#303030"/>
<path d="M189.383 10.4334L195.442 19.0256L197.22 17.7812L191.102 9.189L193.65 7.38169L192.42 5.64844L185.517 10.5371L186.746 12.2555L189.383 10.4334Z" fill="#303030"/>
<path d="M202.301 15.0259L200.494 9.84096L204.242 8.53732L206.049 13.7223L208.094 13.0112L203.946 1.15991L201.887 1.87099L203.546 6.61149L199.798 7.91513L198.139 3.17463L196.094 3.82645L200.242 15.7518L202.301 15.0259Z" fill="#303030"/>
<path d="M215.204 7.29293C215.923 7.01849 216.529 6.51297 216.929 5.85592C217.329 5.19886 217.498 4.42759 217.412 3.66348C217.323 1.17471 216.286 -0.0844848 213.767 0.00439964L208.997 0.167355L209.456 12.789L211.619 12.7149L211.441 7.69291H212.923L216.226 12.5964L218.745 12.5075L215.204 7.29293ZM213.989 5.48561L211.367 5.58931L211.234 2.19688L213.856 2.108C214.597 2.108 215.189 2.44872 215.234 3.66348C215.278 4.87823 214.804 5.45598 213.989 5.48561Z" fill="#303030"/>
<path d="M222.419 7.94465L226.863 9.02608L227.367 6.98173L222.923 5.88549L223.693 3.07081L228.745 4.3152L229.248 2.25604L222.019 0.493164L219.056 12.7592L221.16 13.2777L222.419 7.94465Z" fill="#303030"/>
<path d="M228.656 15.8555L231.337 11.0705L232.256 17.885L234.67 19.2331L233.515 11.0112L240.67 8.15213L238.374 6.78923L232.448 9.20393L234.907 4.7597L232.937 3.82642L226.76 14.8481L228.656 15.8555Z" fill="#303030"/>
<path d="M236.285 21.1884L244.581 11.6482L242.937 10.1667L234.641 19.6922L236.285 21.1884Z" fill="#303030"/>
<path d="M238.803 23.7662L245.144 19.0405L241.262 27.0549L242.551 28.7882L252.669 21.233L251.38 19.4998L244.981 24.2551L248.951 16.2555L247.632 14.4778L237.5 22.0182L238.803 23.7662Z" fill="#303030"/>
<path d="M248.877 27.3215C245.662 28.4325 243.233 31.025 244.255 34.047C244.419 34.5679 244.691 35.0482 245.054 35.4567C245.416 35.8651 245.861 36.1924 246.359 36.4173L245.573 36.8914L246.107 38.3728L252.862 36.0618L251.262 31.3657L249.262 32.0471L250.21 34.9359H250.092C249.752 35.098 249.383 35.1909 249.007 35.2092C248.63 35.2276 248.254 35.1711 247.9 35.0429C247.546 34.9147 247.221 34.7175 246.943 34.4626C246.666 34.2077 246.442 33.9003 246.284 33.5582C245.662 31.7212 247.321 30.1213 249.544 29.3658C251.766 28.6103 254.092 28.7436 254.743 30.6694C254.844 30.9727 254.881 31.2937 254.851 31.6119C254.821 31.9301 254.725 32.2386 254.568 32.5175C254.412 32.7964 254.2 33.0396 253.944 33.2315C253.688 33.4235 253.396 33.56 253.084 33.6323L253.81 35.7359C255.677 35.01 257.884 33.2471 256.773 29.9732C255.662 26.6993 251.988 26.24 248.877 27.3215Z" fill="#303030"/>
<path d="M252.803 44.5059C249.44 44.0467 246.092 45.2911 245.662 48.4465C245.574 48.9976 245.604 49.561 245.75 50.0997C245.895 50.6384 246.153 51.1403 246.507 51.5722L245.603 51.6463L245.381 53.261L252.462 54.224L253.129 49.3057L251.04 49.0242L250.64 51.987H250.521C248.832 51.7648 247.558 50.5056 247.736 49.0242C248.003 47.0984 250.21 46.4169 252.521 46.728C254.832 47.0391 256.876 48.2094 256.595 50.2242C256.55 50.5415 256.44 50.8459 256.27 51.1179C256.101 51.3898 255.876 51.6233 255.611 51.8033C255.346 51.9833 255.046 52.1058 254.731 52.163C254.416 52.2201 254.092 52.2107 253.78 52.1352L253.484 54.3425C255.484 54.5202 258.239 53.9425 258.699 50.5204C259.158 47.0984 256.121 44.9503 252.803 44.5059Z" fill="#303030"/>
<path d="M245.366 53.3943L244.433 55.4683L247.247 57.9422L246.032 60.5791L242.344 59.9569L241.351 62.105L254.328 64.1345L255.276 62.1346L245.366 53.3943ZM248.121 60.9198L248.862 59.3495L251.158 61.4235L248.121 60.9198Z" fill="#303030"/>
<path d="M239.751 63.8531L244.507 68.2973L238.507 65.1567L237.159 66.6382L240.7 72.3564L235.944 67.9122L234.463 69.5269L243.736 78.1042L245.485 76.2229L240.759 68.564L248.744 72.6971L250.506 70.7861L241.233 62.2087L239.751 63.8531Z" fill="#303030"/>
<path d="M226.655 74.0007L227.692 75.8376L232.581 73.0526L234.24 76.0154L229.618 78.5782L230.655 80.4152L235.233 77.8968L236.714 80.43L232.003 83.0965L233.04 84.9334L239.647 81.2003L233.425 70.2083L226.655 74.0007Z" fill="#303030"/>
<path d="M217.041 75.5858C216.466 75.64 215.906 75.8096 215.397 76.0845C214.888 76.3594 214.44 76.7339 214.079 77.1857C213.217 78.466 212.777 79.9835 212.819 81.5262L215.012 81.3485C215.116 79.4226 215.723 77.8079 217.086 77.7042C218.834 77.5709 219.767 79.6597 219.945 81.9707C220.123 84.2817 219.53 86.4149 217.797 86.6223C216.819 86.6223 216.005 85.9556 215.382 84.1928L213.16 84.3705C213.464 85.5806 214.065 86.6957 214.908 87.6148C215.326 88.0048 215.818 88.3058 216.355 88.4994C216.893 88.6929 217.464 88.775 218.034 88.7407C221.219 88.4889 222.478 85.0668 222.152 81.7929C221.826 78.519 220.227 75.3339 217.041 75.5858Z" fill="#303030"/>
<path d="M208.405 81.082L204.538 80.2227L205.723 74.86L203.605 74.386L200.864 86.7854L202.983 87.2594L204.064 82.3411L207.946 83.2004L206.849 88.1038L208.983 88.5779L211.723 76.2526L209.59 75.7785L208.405 81.082Z" fill="#303030"/>
<path d="M201.324 73.2601L198.642 75.8822L196.109 74.4008L196.998 70.7861L194.939 69.6306L191.976 82.43L193.917 83.5114L203.353 74.3119L201.324 73.2601ZM194.879 79.5709L195.62 76.6081L197.102 77.4525L194.879 79.5709Z" fill="#303030"/>
<path d="M193.324 67.9419L187.65 73.4527L190.45 64.9939L188.968 63.5125L179.932 72.4009L181.413 73.8823L187.117 68.3122L184.243 76.7859L185.798 78.371L194.835 69.4825L193.324 67.9419Z" fill="#303030"/>
<path d="M186.658 58.4609C186.425 57.9528 186.085 57.5015 185.66 57.1383C185.235 56.775 184.737 56.5085 184.199 56.3573L184.91 55.7795L184.184 54.2981L177.77 57.5128L179.992 61.957L181.888 61.0089L180.584 58.4016H180.688C181.003 58.194 181.356 58.0514 181.726 57.9821C182.097 57.9129 182.478 57.9185 182.846 57.9986C183.215 58.0786 183.564 58.2315 183.872 58.4483C184.181 58.665 184.443 58.9413 184.643 59.2608C185.502 60.9941 184.066 62.8014 181.977 63.8532C179.888 64.905 177.532 65.0679 176.644 63.2458C176.501 62.9586 176.421 62.6446 176.408 62.3244C176.395 62.0041 176.45 61.6847 176.569 61.387C176.688 61.0893 176.868 60.8199 177.098 60.5965C177.328 60.3731 177.602 60.2007 177.903 60.0904L176.895 58.0905C175.147 59.0682 173.192 61.0533 174.733 64.1939C176.273 67.3345 179.977 67.29 182.969 65.7938C185.962 64.2976 188.021 61.32 186.658 58.4609Z" fill="#303030"/>
<path d="M182.628 45.3799L180.54 45.7206L181.443 51.2314L178.11 51.7796L177.266 46.6243L175.177 46.965L176.021 52.1203L173.147 52.7129L172.273 47.365L170.199 47.7057L171.414 55.2016L183.888 53.1721L182.628 45.3799Z" fill="#303030"/>
<path d="M183.473 37.6321L183.784 35.1286L178.125 37.7358C177.982 36.9731 177.585 36.2812 176.998 35.7728C176.412 35.2645 175.671 34.9695 174.895 34.936C172.421 34.6249 171.014 35.4989 170.703 37.8988L170.095 42.6245L182.628 44.2096L182.91 42.0616L177.917 41.4394L178.095 39.958L183.473 37.6321ZM176.154 38.6543L175.829 41.2616L172.466 40.8616L172.792 38.2692C172.895 37.5285 173.34 37.01 174.554 37.1581C175.769 37.3062 176.288 37.7803 176.154 38.6543Z" fill="#303030"/>
<path d="M210.212 43.4838C210.96 42.6511 211.531 41.6761 211.893 40.6171C212.254 39.5582 212.398 38.4371 212.316 37.3212C212.391 36.2026 212.225 35.0808 211.829 34.0321C211.432 32.9834 210.814 32.0325 210.017 31.2439C209.221 30.4554 208.263 29.8477 207.21 29.4623C206.157 29.0769 205.034 28.9228 203.916 29.0105H193.546V59.8534H206.197C209.531 59.8534 213.323 56.1499 213.323 50.3724C213.406 49.0575 213.166 47.7423 212.623 46.5416C212.081 45.3408 211.253 44.2911 210.212 43.4838V43.4838ZM198.894 34.1658H203.62C204.083 34.1355 204.548 34.2066 204.981 34.374C205.415 34.5414 205.807 34.8013 206.129 35.1354C206.452 35.4695 206.698 35.8699 206.851 36.3087C207.003 36.7476 207.058 37.2144 207.012 37.6767C207.012 40.2395 206.079 41.2617 203.916 41.2617H198.894V34.1658ZM205.249 54.6981H198.894V46.4318H203.62C206.805 46.4318 208.064 47.6318 208.064 50.402C208.094 52.713 207.072 54.6981 205.249 54.6981V54.6981Z" fill="#303030"/>
<path d="M232.329 29.0103L226.655 50.0018L220.73 29.0103H215.1L223.989 59.8532H228.966L237.855 29.0103H232.329Z" fill="#303030"/>
<path d="M286.441 56.7483L291.141 26.4275H296.791L290.758 63.6042H281.575L275.542 26.4275H281.742L286.441 56.7483Z" fill="#303030"/>
<path d="M318.14 63.6042H311.94L310.873 56.8592H303.324L302.274 63.6042H296.624L302.89 26.4275H311.89L318.14 63.6042ZM304.107 51.8083H310.04L307.074 33.0142L304.107 51.8083Z" fill="#303030"/>
<path d="M339.223 35.6583V40.4083C339.223 46.3458 336.206 49.5917 330.056 49.5917H327.14V63.5567H320.99V26.4275H330.056C336.206 26.4275 339.223 29.6575 339.223 35.6583ZM327.14 31.7792V44.3667H330.056C332.006 44.3667 333.073 43.5275 333.073 40.8675V35.2467C333.073 32.5867 332.006 31.7317 330.056 31.7317L327.14 31.7792Z" fill="#303030"/>
<path d="M348.505 42.1025H356.938V47.4067H348.505V58.3H359.121V63.6042H342.355V26.4275H359.121V31.7317H348.505V42.1025Z" fill="#303030"/>
<path d="M371.205 26C377.188 26 380.254 29.4042 380.254 35.3417V36.5133H374.438V34.93C374.438 32.27 373.321 31.2567 371.371 31.2567C369.421 31.2567 368.288 32.27 368.288 34.93C368.288 42.5775 380.321 44.0183 380.321 54.6425C380.321 60.58 377.188 63.9842 371.138 63.9842C365.088 63.9842 361.972 60.58 361.972 54.6425V52.3942H367.788V55.0542C367.788 57.7142 369.021 58.6642 370.971 58.6642C372.921 58.6642 374.171 57.7142 374.171 55.0542C374.171 47.4067 362.138 45.9658 362.138 35.3417C362.138 29.4042 365.222 26 371.205 26Z" fill="#303030"/>
<path d="M389.987 63.6042H383.837V26.4275H389.987V42.3558H396.97V26.4275H403.236V63.6042H396.97V47.6758H389.987V63.6042Z" fill="#303030"/>
<path d="M407.202 35.3417C407.202 29.4042 410.535 26 416.535 26C422.535 26 425.885 29.4042 425.885 35.3417V54.6583C425.885 60.5958 422.551 64 416.535 64C410.519 64 407.202 60.5958 407.202 54.6583V35.3417ZM413.352 55.0542C413.352 57.7142 414.585 58.7275 416.535 58.7275C418.485 58.7275 419.735 57.7142 419.735 55.0542V34.9775C419.735 32.3175 418.502 31.3042 416.535 31.3042C414.568 31.3042 413.352 32.3175 413.352 34.9775V55.0542Z" fill="#303030"/>
<path d="M448.001 35.6583V40.4083C448.001 46.3458 444.984 49.5917 438.834 49.5917H436.001V63.5567H429.852V26.4275H438.901C445.051 26.4275 448.001 29.6575 448.001 35.6583ZM435.935 31.7792V44.3667H438.834C440.801 44.3667 441.851 43.5275 441.851 40.8675V35.2467C441.851 32.5867 440.801 31.7317 438.834 31.7317L435.935 31.7792Z" fill="#303030"/>
<path d="M18.8139 34.9833V36.3611C18.8139 40.1777 17.5547 42.6302 14.7548 43.8564C18.1176 45.0689 19.4361 47.8934 19.4361 51.8202V54.8513C19.4361 60.5968 16.177 63.6693 9.89581 63.6693H0V26.4685H9.55508C15.9992 26.4271 18.8139 29.2516 18.8139 34.9833ZM6.29598 31.7455V41.583H8.75512C11.0957 41.583 12.5179 40.6186 12.5179 37.6425V35.5758C12.5179 32.9166 11.555 31.7455 9.31805 31.7455H6.29598ZM6.29598 46.9014V58.3372H9.89581C11.9994 58.3372 13.1549 57.4279 13.1549 54.6585V51.4068C13.1549 47.9485 11.955 46.8876 9.09584 46.8876L6.29598 46.9014Z" fill="#303030"/>
<path d="M43.6277 63.6279H37.2724L36.191 56.8904H28.3988L27.3322 63.6279H21.5547L27.9544 26.427H37.1539L43.6277 63.6279ZM29.2728 51.8338H35.3318L32.369 33.0129L29.2728 51.8338Z" fill="#303030"/>
<path d="M65.2561 34.9833V36.3611C65.2561 40.1777 64.0117 42.6302 61.2119 43.8564C64.5747 45.0689 65.8931 47.8934 65.8931 51.8202V54.8513C65.8931 60.5968 62.634 63.6693 56.3528 63.6693H46.457V26.4685H55.9529C62.4562 26.4271 65.2561 29.2516 65.2561 34.9833ZM52.753 31.7455V41.583H55.1973C57.5528 41.583 58.9749 40.6186 58.9749 37.6425V35.5758C58.9749 32.9166 58.012 31.7455 55.7751 31.7455H52.753ZM52.753 46.9014V58.3372H56.3528C58.4564 58.3372 59.6119 57.4279 59.6119 54.6585V51.4068C59.6119 47.9485 58.412 46.8876 55.5529 46.8876L52.753 46.9014Z" fill="#303030"/>
<path d="M74.7372 51.2967L66.7969 26.4961H73.2558L78.0556 43.4569L82.8553 26.4961H88.781L80.8406 51.3656V63.7659H74.7372V51.2967Z" fill="#303030"/>
<path d="M91.4326 26.427H97.7138V58.3233H108.084V63.6279H91.4326V26.427Z" fill="#303030"/>
<path d="M110.291 35.3553C110.291 29.4032 113.654 26 119.831 26C126.009 26 129.372 29.4032 129.372 35.3553V54.6447C129.372 60.5968 126.009 64 119.831 64C113.654 64 110.291 60.6519 110.291 54.6998V35.3553ZM116.572 55.0718C116.572 57.731 117.831 58.7505 119.831 58.7505C121.831 58.7505 123.09 57.731 123.09 55.0718V34.9833C123.09 32.3241 121.831 31.3183 119.831 31.3183C117.831 31.3183 116.572 32.3241 116.572 34.9833V55.0718Z" fill="#303030"/>
<path d="M139.03 36.6917V63.6279H133.371V26.427H141.252L147.711 48.6924V26.427H153.252V63.6279H146.793L139.03 36.6917Z" fill="#303030"/>
</svg>
